<?xml version="1.0" encoding="utf-8"?>
<!-- Generator: Adobe Illustrator 16.0.0, SVG Export Plug-In . SVG Version: 6.00 Build 0)  -->
<!DOCTYPE svg PUBLIC "-//W3C//DTD SVG 1.0//EN" "http://www.w3.org/TR/2001/REC-SVG-20010904/DTD/svg10.dtd">
<svg version="1.0" id="Layer_1" xmlns="http://www.w3.org/2000/svg" xmlns:xlink="http://www.w3.org/1999/xlink" x="0px" y="0px"
	 width="355.934px" height="78.727px" viewBox="0 0 355.934 78.727" enable-background="new 0 0 355.934 78.727"
	 xml:space="preserve">
<g>
	<path fill="#FFFFFF" d="M12.822,20.429v32.881h6.5v8.227H2.133V20.429H12.822z"/>
	<path fill="#FFFFFF" d="M33.693,20.429v41.108H23.004V20.429H33.693z"/>
	<path fill="#FFFFFF" d="M62.944,20.429v41.108h-9.369L48.014,42.85v18.688h-8.938V20.429h8.938l5.992,18.51v-18.51H62.944z"/>
	<path fill="#FFFFFF" d="M93.286,38.33H82.596v-7.145c0-2.077-0.114-3.374-0.343-3.89c-0.229-0.515-0.732-0.772-1.511-0.772
		c-0.88,0-1.439,0.313-1.676,0.939c-0.237,0.626-0.355,1.98-0.355,4.062v19.094c0,1.996,0.118,3.301,0.355,3.91
		c0.237,0.609,0.77,0.914,1.6,0.914c0.795,0,1.316-0.305,1.562-0.916c0.245-0.611,0.368-2.045,0.368-4.303v-5.166h10.689v1.602
		c0,4.254-0.301,7.271-0.901,9.053c-0.601,1.779-1.93,3.34-3.986,4.678c-2.057,1.34-4.592,2.01-7.604,2.01
		c-3.132,0-5.713-0.568-7.744-1.701c-2.031-1.135-3.377-2.705-4.037-4.711s-0.99-5.023-0.99-9.051v-12.01
		c0-2.962,0.102-5.184,0.305-6.665s0.808-2.907,1.815-4.278c1.007-1.371,2.403-2.45,4.189-3.237
		c1.786-0.787,3.838-1.181,6.157-1.181c3.148,0,5.747,0.608,7.795,1.826c2.048,1.217,3.394,2.734,4.037,4.551
		c0.643,1.817,0.965,4.645,0.965,8.481V38.33z"/>
	<path fill="#FFFFFF" d="M122.638,44.5c0,4.129-0.098,7.055-0.292,8.771c-0.195,1.719-0.804,3.289-1.828,4.711
		c-1.024,1.422-2.408,2.514-4.151,3.275c-1.744,0.762-3.775,1.143-6.094,1.143c-2.201,0-4.177-0.359-5.929-1.08
		c-1.752-0.719-3.161-1.799-4.228-3.236c-1.066-1.439-1.701-3.006-1.904-4.697c-0.203-1.693-0.305-4.656-0.305-8.887v-7.033
		c0-4.13,0.097-7.055,0.292-8.773c0.194-1.718,0.804-3.288,1.828-4.71c1.024-1.422,2.408-2.514,4.151-3.275
		c1.743-0.762,3.774-1.143,6.094-1.143c2.2,0,4.177,0.359,5.929,1.079s3.161,1.799,4.228,3.237s1.701,3.005,1.904,4.697
		s0.305,4.655,0.305,8.887V44.5z M111.948,30.992c0-1.913-0.106-3.136-0.317-3.669c-0.212-0.533-0.647-0.8-1.308-0.8
		c-0.559,0-0.986,0.216-1.282,0.647c-0.296,0.432-0.444,1.705-0.444,3.821v19.196c0,2.387,0.097,3.859,0.292,4.418
		c0.194,0.559,0.647,0.838,1.358,0.838c0.728,0,1.193-0.322,1.396-0.965c0.203-0.645,0.305-2.176,0.305-4.596V30.992z"/>
	<path fill="#FFFFFF" d="M138.405,20.429v32.881h6.5v8.227h-17.189V20.429H138.405z"/>
	<path fill="#FFFFFF" d="M172.455,20.429v41.108h-9.369l-5.561-18.688v18.688h-8.938V20.429h8.938l5.992,18.51v-18.51H172.455z"/>
</g>
<g>
	<path fill="#FFFFFF" d="M198.155,20.43v32.881h6.5v8.227h-17.189V20.43H198.155z"/>
	<path fill="#FFFFFF" d="M228.11,20.43l6.112,41.107h-10.925l-0.573-7.389h-3.823l-0.643,7.389h-11.052l5.452-41.107H228.11z
		 M222.444,46.861c-0.541-4.656-1.084-10.411-1.628-17.266c-1.089,7.871-1.773,13.627-2.052,17.266H222.444z"/>
	<path fill="#FFFFFF" d="M276.435,20.43l-4.76,41.107h-13.346c-1.222-6.315-2.3-13.501-3.235-21.557
		c-0.427,3.454-1.42,10.64-2.981,21.557h-13.27l-4.785-41.107h10.385l1.13,14.343l1.092,13.866
		c0.395-7.176,1.38-16.579,2.956-28.209h11.1c0.147,1.202,0.536,5.722,1.166,13.559l1.181,15.641
		c0.607-9.951,1.603-19.684,2.983-29.199H276.435z"/>
	<path fill="#FFFFFF" d="M303.35,20.43l-7.795,26.229v14.879h-9.902V46.658l-7.516-26.229h9.82
		c1.534,8.024,2.399,13.424,2.596,16.199c0.593-4.386,1.585-9.786,2.977-16.199H303.35z"/>
	<path fill="#FFFFFF" d="M306.27,20.43h17.824v8.227h-7.135v7.795h6.678v7.82h-6.678v9.039h7.846v8.227H306.27V20.43z"/>
	<path fill="#FFFFFF" d="M328.969,20.43h7.566c5.044,0,8.459,0.195,10.245,0.584c1.786,0.39,3.241,1.384,4.367,2.983
		s1.688,4.151,1.688,7.655c0,3.199-0.397,5.35-1.193,6.449c-0.796,1.101-2.361,1.761-4.697,1.98
		c2.116,0.525,3.538,1.228,4.266,2.107c0.728,0.881,1.181,1.688,1.358,2.425s0.267,2.764,0.267,6.081v10.842h-9.928v-13.66
		c0-2.2-0.174-3.562-0.521-4.088c-0.347-0.524-1.257-0.787-2.729-0.787v18.535h-10.689V20.43z M339.658,27.463v9.141
		c1.202,0,2.044-0.165,2.526-0.495s0.724-1.4,0.724-3.212v-2.26c0-1.303-0.232-2.158-0.698-2.564S340.894,27.463,339.658,27.463z"/>
</g>
<g>
	<path fill="#FFFFFF" d="M0.344,2.132H10.43v2.651H7.046v8.086H3.728V4.784H0.344V2.132z"/>
	<path fill="#FFFFFF" d="M12.261,2.132h3.318V5.89h3.625V2.132h3.333V12.87h-3.333V8.526h-3.625v4.343h-3.318V2.132z"/>
	<path fill="#FFFFFF" d="M25.049,2.132h8.892v2.292h-5.566v1.707h5.164v2.19h-5.164v2.117h5.728v2.432h-9.053V2.132z"/>
</g>
</svg>
